<svg id="ic-local-phone-24px" xmlns="http://www.w3.org/2000/svg" width="18" height="18" viewBox="0 0 18 18">
  <path id="Path" d="M0,0H18V18H0Z" fill="none"/>
  <path id="Path-2" data-name="Path" d="M2.715,5.843a11.361,11.361,0,0,0,4.942,4.942l1.65-1.65a.746.746,0,0,1,.765-.18,8.555,8.555,0,0,0,2.677.427.752.752,0,0,1,.75.75V12.75a.752.752,0,0,1-.75.75A12.749,12.749,0,0,1,0,.75.752.752,0,0,1,.75,0H3.375a.752.752,0,0,1,.75.75,8.52,8.52,0,0,0,.427,2.678.753.753,0,0,1-.187.765Z" transform="translate(2.25 2.25)" fill="#ae3238"/>
</svg>
