<svg width="20" height="20" fill="none" xmlns="http://www.w3.org/2000/svg"><path fill-rule="evenodd" clip-rule="evenodd" d="M18.66 4.98a9.932 9.932 0 00-3.641-3.64C13.486.447 11.813 0 10 0 8.187 0 6.514.447 4.98 1.34a9.929 9.929 0 00-3.64 3.64C.447 6.513 0 8.187 0 10c0 1.813.446 3.487 1.34 5.02a9.924 9.924 0 003.641 3.64C6.514 19.553 8.187 20 10 20c1.813 0 3.486-.447 5.02-1.34a9.932 9.932 0 003.641-3.64C19.554 13.487 20 11.813 20 10c0-1.813-.446-3.487-1.34-5.02zM10 1.66c2 0 3.772.64 5.32 1.919-.92 1.174-2.286 2.14-4.1 2.9-1.002-1.813-2.088-3.327-3.261-4.54A7.715 7.715 0 0110 1.66zm-3.779.92A8.116 8.116 0 003.51 4.8a8.549 8.549 0 00-1.59 3.14c.294.027.727.04 1.3.04 2.227 0 4.341-.3 6.341-.9-1.015-1.8-2.128-3.299-3.34-4.5zM1.66 10c0-.054.003-.12.01-.2.007-.08.01-.146.01-.2.254.014.641.02 1.161.02 2.666 0 5.146-.367 7.439-1.1.187.373.381.793.58 1.26-1.32.293-2.674 1.006-4.061 2.14C5.412 13.054 4.4 14.247 3.76 15.5c-1.4-1.587-2.1-3.42-2.1-5.5zm3.239 6.581C6.406 17.753 8.106 18.34 10 18.34c.986 0 1.966-.187 2.94-.56a29.441 29.441 0 00-1.56-6.62c-1.227.267-2.464.94-3.71 2.02-1.247 1.079-2.17 2.214-2.771 3.401zM17.08 14.38a8.351 8.351 0 01-2.58 2.621c-.24-2.08-.7-4.107-1.379-6.081.932-.066 1.765-.1 2.5-.1.799 0 1.686.034 2.659.1a8.098 8.098 0 01-1.2 3.46zm-4.46-4.86c.987-.093 2.06-.14 3.22-.14.827 0 1.647.02 2.459.06-.106-1.813-.76-3.426-1.96-4.84-.867 1.294-2.333 2.394-4.399 3.3.2.427.426.967.68 1.62z" fill="#fff"/></svg>