<svg width="19" height="19" fill="none" xmlns="http://www.w3.org/2000/svg"><path fill-rule="evenodd" clip-rule="evenodd" d="M17.533 3.11A4.605 4.605 0 0014.9.48a6.606 6.606 0 00-2.186-.42c-.963-.042-1.268-.054-3.71-.054s-2.755 0-3.71.054A6.554 6.554 0 003.11.48 4.6 4.6 0 00.477 3.11a6.585 6.585 0 00-.419 2.186c-.043.962-.056 1.267-.056 3.71 0 2.442 0 2.753.056 3.71.015.748.156 1.486.419 2.187a4.61 4.61 0 002.634 2.632 6.584 6.584 0 002.185.45c.963.042 1.268.055 3.71.055s2.755 0 3.71-.055a6.615 6.615 0 002.186-.42 4.613 4.613 0 002.633-2.632c.263-.7.404-1.438.419-2.186.043-.962.056-1.267.056-3.71s0-2.753-.056-3.71a6.581 6.581 0 00-.421-2.217zm-1.218 9.533a5.043 5.043 0 01-.311 1.688 2.987 2.987 0 01-1.712 1.71 4.985 4.985 0 01-1.67.312c-.95.044-1.218.055-3.654.055-2.438 0-2.687 0-3.655-.055a4.96 4.96 0 01-1.669-.311 2.985 2.985 0 01-1.72-1.711 5.08 5.08 0 01-.31-1.67c-.043-.95-.053-1.217-.053-3.653 0-2.437 0-2.686.053-3.655a5.038 5.038 0 01.31-1.687c.306-.79.931-1.41 1.72-1.712a5.01 5.01 0 011.669-.311c.951-.043 1.218-.055 3.655-.055s2.687 0 3.654.055a4.96 4.96 0 011.67.31 2.991 2.991 0 011.712 1.713 5.08 5.08 0 01.311 1.669c.043.95.054 1.218.054 3.655 0 2.436 0 2.698-.043 3.654h-.011v-.001zm-1.431-8.436a1.078 1.078 0 11-2.156 0 1.078 1.078 0 012.156 0zM4.376 9a4.623 4.623 0 119.246 0 4.624 4.624 0 01-9.246 0zm1.619 0a3.004 3.004 0 106.008 0 3.004 3.004 0 00-6.008 0z" fill="#fff"/></svg>