<svg xmlns="http://www.w3.org/2000/svg" width="31" height="24"><path data-name="”" d="M15 1.355a29.461 29.461 0 00-7.4 6.1 11.994 11.994 0 00-3.06 6.581q2.862-2.419 5.132-2.419a2.457 2.457 0 012.023.919A3.823 3.823 0 0112.434 15a8.536 8.536 0 01-1.184 4.162 10.576 10.576 0 01-3.06 3.484A6.5 6.5 0 014.342 24Q0 24 0 18.29A16.328 16.328 0 013.9 8.177 28.961 28.961 0 0114.507 0zm16 0a29.467 29.467 0 00-7.4 6.1 11.993 11.993 0 00-3.059 6.581q2.859-2.423 5.13-2.423a2.457 2.457 0 012.023.919 3.823 3.823 0 01.74 2.468 8.527 8.527 0 01-1.184 4.162 10.564 10.564 0 01-3.059 3.483A6.505 6.505 0 0120.342 24Q16 24 16 18.29a16.333 16.333 0 013.9-10.113A28.972 28.972 0 0130.507 0z" opacity=".1"/></svg>