<svg xmlns="http://www.w3.org/2000/svg" viewBox="0 0 1280 249.96"><defs><style>.cls-1{fill:#fff;}</style></defs><title>logo white</title><g id="logo_white" data-name="logo white"><path class="cls-1" d="M205.61,125S152,119.85,129.94,97.84,102.81,0,102.81,0h0S97.68,75.84,75.67,97.84,0,125,0,125H0s53.66,5.12,75.66,27.13S102.81,250,102.81,250v0s5.13-75.82,27.13-97.83S205.62,125,205.62,125Z"/><path class="cls-1" d="M361.61,130.7l.13,33.55q0,13,.92,22.79a97.78,97.78,0,0,0,3,17.58l-6.44,0c-9.22,0-17.75-5.64-20.62-14.41a8,8,0,0,1-.41-1.81l-2.58,4q-9.42,9.24-17.08,12.11a47.63,47.63,0,0,1-16.64,2.9,45.24,45.24,0,0,1-16.19-2.66,36.36,36.36,0,0,1-12.19-7.27,32,32,0,0,1-7.72-10.83A33.15,33.15,0,0,1,263,173.38a34.12,34.12,0,0,1,3.25-15.26q3.27-6.74,10.94-11.74T297.39,138a208,208,0,0,1,30.69-5.32,52.47,52.47,0,0,1-1.4,5.68,20.74,20.74,0,0,1-2.81,5.8,19.26,19.26,0,0,1-4.95,4.86,17.71,17.71,0,0,1-7.31,2.86q-13.68,2.42-18.27,7.75a17.42,17.42,0,0,0-4.56,11.71,16.48,16.48,0,0,0,5,11.91q5,5.07,13.24,5a32.46,32.46,0,0,0,15.34-4.19h0a27.19,27.19,0,0,0,14.31-24.06l-.12-30.44q0-13.47-6.81-21.82t-21.88-8.3a70.49,70.49,0,0,0-12.64,1.23A88,88,0,0,0,280.49,105l-6.21-16.27A92.37,92.37,0,0,1,295,82.07a101.36,101.36,0,0,1,17.24-1.72q23.61-.09,36.42,13T361.61,130.7Z"/><path class="cls-1" d="M421.9,25.35l.7,179.05-25,.1-.7-179Z"/><path class="cls-1" d="M483.78,25.11l.7,179.05-25,.09-.71-179Z"/><path class="cls-1" d="M510,196.5,516.27,179a88.19,88.19,0,0,0,18.56,6.31,78.93,78.93,0,0,0,16.43,1.83q10.15,0,15-4.67A15.21,15.21,0,0,0,571,171a13.42,13.42,0,0,0-4.29-10.15,47.36,47.36,0,0,0-10.66-7.28q-6.39-3.27-13.73-6.44a78.26,78.26,0,0,1-13.73-7.62A40.25,40.25,0,0,1,518,128.56q-4.28-6.48-4.32-16.17A30.27,30.27,0,0,1,516,100.93a31,31,0,0,1,7.17-10.54,36.75,36.75,0,0,1,12.25-7.73,47.8,47.8,0,0,1,17.58-3,98.6,98.6,0,0,1,15.24,1.24,115.09,115.09,0,0,1,18.56,4.77l-6.07,17a94.78,94.78,0,0,0-14.07-3.49,73.71,73.71,0,0,0-11.46-.89q-7.56,0-12.5,3.47t-4.92,10.29A13.08,13.08,0,0,0,542,122a46.74,46.74,0,0,0,10.65,7.28q6.41,3.28,13.73,6.56a77.69,77.69,0,0,1,13.73,7.86,41.29,41.29,0,0,1,10.68,11.17q4.27,6.6,4.31,16.52a28.71,28.71,0,0,1-3.25,13.6,36.21,36.21,0,0,1-8.94,11,43.53,43.53,0,0,1-13,7.5,43.09,43.09,0,0,1-15.1,2.77c-3,0-6.14-.06-9.45-.19a72,72,0,0,1-10.4-1.27,101,101,0,0,1-11.71-3A113.6,113.6,0,0,1,510,196.5Z"/><path class="cls-1" d="M625.79,158l-.23-58.11L604.3,100l0-13,21.24-5.52L625.37,51,649,43.12l.45,116.5q0,12,5.28,19.79t13.73,7.73a46.56,46.56,0,0,0,8.62-.86,98.37,98.37,0,0,0,10.5-2.76l5.73,16.91q-9,3.15-14.39,4.49a48.35,48.35,0,0,1-11.33,1.35q-20.32.09-31-12.51T625.79,158Zm65.43-58.37-12.75,0H676a18.38,18.38,0,0,1-18.41-18.35h0l33.54-.13Z"/><path class="cls-1" d="M813,128.93l.13,33.55q.06,13,.92,22.79a98.05,98.05,0,0,0,3,17.59l-6.44,0c-9.22,0-17.74-5.64-20.61-14.41a8,8,0,0,1-.42-1.81l-2.58,4q-9.4,9.26-17.07,12.11a47.63,47.63,0,0,1-16.64,2.9,45.51,45.51,0,0,1-16.2-2.65,36.55,36.55,0,0,1-12.19-7.28,32.23,32.23,0,0,1-7.72-10.83,33.15,33.15,0,0,1-2.77-13.33,34.12,34.12,0,0,1,3.25-15.26,29.77,29.77,0,0,1,10.94-11.73q7.65-5,20.16-8.34A205.81,205.81,0,0,1,779.45,131a50.09,50.09,0,0,1-1.4,5.67,20.74,20.74,0,0,1-2.81,5.8,19.22,19.22,0,0,1-4.94,4.86,17.86,17.86,0,0,1-7.31,2.87q-13.69,2.4-18.28,7.74a17.54,17.54,0,0,0-4.56,11.71,16.52,16.52,0,0,0,5,11.91q5,5.07,13.25,5a32.59,32.59,0,0,0,15.34-4.2l.15-.08a26.91,26.91,0,0,0,14.16-23.81l-.12-30.61q-.06-13.45-6.82-21.82t-21.88-8.3A70.29,70.29,0,0,0,746.61,99a89,89,0,0,0-14.75,4.31L725.66,87a92,92,0,0,1,20.76-6.7,101.35,101.35,0,0,1,17.23-1.72q23.63-.09,36.43,13T813,128.93Z"/><path class="cls-1" d="M844.44,80.62l19.26-.07c2.2,2.2,7.52,11.83,7.52,23.12h0l2.11-4.73a40,40,0,0,1,12.93-14.7,30.05,30.05,0,0,1,17.23-5.73,44.55,44.55,0,0,1,12.75,2.07l-3,20.8a60,60,0,0,0-12-1.61,25,25,0,0,0-10.86,2.53,27.48,27.48,0,0,0-9.3,7.47,35.89,35.89,0,0,0-6.44,12.43,58.11,58.11,0,0,0-2.3,17.6l.24,62.84-23.85.09-.32-81.49q0-10.15-.91-20.78A135.2,135.2,0,0,0,844.44,80.62Z"/><path class="cls-1" d="M929.92,194.85l6.31-17.5a88.07,88.07,0,0,0,18.57,6.31,79.33,79.33,0,0,0,16.42,1.82q10.15,0,15-4.67A15.15,15.15,0,0,0,991,169.34a13.36,13.36,0,0,0-4.29-10.14,47,47,0,0,0-10.66-7.28q-6.39-3.28-13.72-6.44a78.35,78.35,0,0,1-13.74-7.62,40.57,40.57,0,0,1-10.67-11q-4.27-6.48-4.31-16.16a30.26,30.26,0,0,1,2.31-11.47,31,31,0,0,1,7.17-10.53A36.7,36.7,0,0,1,955.34,81a47.41,47.41,0,0,1,17.59-3,97.57,97.57,0,0,1,15.24,1.24A113.28,113.28,0,0,1,1006.73,84l-6.08,17a95,95,0,0,0-14.06-3.49,75.31,75.31,0,0,0-11.46-.9c-5,0-9.21,1.18-12.51,3.47s-4.94,5.73-4.92,10.29a13.13,13.13,0,0,0,4.29,9.91,46.71,46.71,0,0,0,10.66,7.28q6.39,3.28,13.73,6.56A79.23,79.23,0,0,1,1000.1,142a41,41,0,0,1,10.68,11.18q4.28,6.6,4.32,16.52a28.59,28.59,0,0,1-3.26,13.59,36.21,36.21,0,0,1-8.93,11,44,44,0,0,1-13,7.49,43.15,43.15,0,0,1-15.11,2.78q-4.49,0-9.45-.2a72.29,72.29,0,0,1-10.4-1.26,102.9,102.9,0,0,1-11.7-3A115.65,115.65,0,0,1,929.92,194.85Z"/><path class="cls-1" d="M1040,189.93a15.58,15.58,0,0,1,4.32-11.35,15,15,0,0,1,11.2-4.53,15.34,15.34,0,0,1,15.89,15.76,15,15,0,0,1-4.44,11.24,15.61,15.61,0,0,1-11.33,4.41A15,15,0,0,1,1040,189.93Z"/><path class="cls-1" d="M1106.25,44.17a15.78,15.78,0,0,1,4.44-11.48,14.85,14.85,0,0,1,11.08-4.64,15.16,15.16,0,0,1,11.36,4.56,15.79,15.79,0,0,1,4.53,11.44,15,15,0,0,1-4.45,11.12,15.36,15.36,0,0,1-11.31,4.53,15.34,15.34,0,0,1-15.65-15.53Zm29.19,157.44-25.74.1-.48-122.12,25.75-.1Z"/><path class="cls-1" d="M1162.37,140.32q-.07-16.29,5.2-28.25a61,61,0,0,1,13.62-19.89A53.68,53.68,0,0,1,1200,80.42a61.22,61.22,0,0,1,20.89-3.86,59.68,59.68,0,0,1,24.59,4.74,54.6,54.6,0,0,1,18.59,13.27,57.81,57.81,0,0,1,11.78,20.15,77.32,77.32,0,0,1,4.11,25.14q.06,15.36-4.74,27.19a60.05,60.05,0,0,1-12.91,20,55.33,55.33,0,0,1-18.73,12.48,59.3,59.3,0,0,1-22.19,4.34,63,63,0,0,1-22.81-4.05,51.42,51.42,0,0,1-18.71-12.21,60.06,60.06,0,0,1-12.71-20Q1162.43,155.69,1162.37,140.32Zm26.69-.1a72.18,72.18,0,0,0,2.19,18.06,43.22,43.22,0,0,0,6.32,14,29.71,29.71,0,0,0,10.19,9.17,27.7,27.7,0,0,0,13.59,3.25,27.3,27.3,0,0,0,14.05-3.59,30.34,30.34,0,0,0,10-9.73,44.32,44.32,0,0,0,5.85-14.19,75.32,75.32,0,0,0,1.82-17.25q-.09-21.73-9.22-33T1221,95.69a28.22,28.22,0,0,0-12.62,2.88,28.72,28.72,0,0,0-10.13,8.54,42.56,42.56,0,0,0-6.79,14A66.52,66.52,0,0,0,1189.06,140.22Z"/></g></svg>